<svg xmlns="http://www.w3.org/2000/svg" version="1.1" xmlns:xlink="http://www.w3.org/1999/xlink"
    width="512" height="512" x="0" y="0" viewBox="0 0 107 106.095"
    style="enable-background:new 0 0 512 512" xml:space="preserve">
  <g>
    <linearGradient id="a">
      <stop offset="0" stop-color="#d62d00" />
        <stop offset="1" stop-color="#ffbe00" />
    </linearGradient>
      <linearGradient xlink:href="#a" id="d" x1="98.228" x2="51.208" y1="36.977" y2="52.463"
          gradientTransform="matrix(1 0 0 -1 0 110.19)" gradientUnits="userSpaceOnUse" />
      <linearGradient xlink:href="#a" id="e" x1="108.527" x2="43.768" y1="-5.552" y2="29.08"
          gradientTransform="matrix(1 0 0 -1 0 110.19)" gradientUnits="userSpaceOnUse" />
      <linearGradient id="b">
      <stop offset="0" stop-color="#fff" />
          <stop offset="1" stop-color="#0ba4d3" />
    </linearGradient>
      <linearGradient xlink:href="#b" id="f" x1="13.549" x2="80.56" y1="22.322" y2="30.206"
          gradientTransform="matrix(1 0 0 -1 0 110.19)" gradientUnits="userSpaceOnUse" />
      <linearGradient id="c">
      <stop offset="0" stop-color="#ffe1ea" />
          <stop offset=".999" stop-color="#e82d6b" />
    </linearGradient>
      <linearGradient xlink:href="#c" id="g" x1="-16.906" x2="90.65" y1="7.411" y2="9.1"
          gradientTransform="matrix(1 0 0 -1 0 110.19)" gradientUnits="userSpaceOnUse" />
      <linearGradient xlink:href="#c" id="h" x1="45.899" x2="57.161" y1="91.165" y2="70.611"
          gradientTransform="matrix(1 0 0 -1 0 110.19)" gradientUnits="userSpaceOnUse" />
      <linearGradient xlink:href="#c" id="i" x1="60.196" x2="66.109" y1="83.376" y2="68.312"
          gradientTransform="matrix(1 0 0 -1 0 110.19)" gradientUnits="userSpaceOnUse" />
      <linearGradient xlink:href="#c" id="j" x1="37.237" x2="46.81" y1="84.24" y2="68.754"
          gradientTransform="matrix(1 0 0 -1 0 110.19)" gradientUnits="userSpaceOnUse" />
      <linearGradient xlink:href="#a" id="k" x1="53.031" x2="56.41" y1="98.13" y2="89.683"
          gradientTransform="matrix(1 0 0 -1 0 110.19)" gradientUnits="userSpaceOnUse" />
      <linearGradient xlink:href="#a" id="l" x1="42.399" x2="45.214" y1="93.914" y2="84.2"
          gradientTransform="matrix(1 0 0 -1 0 110.19)" gradientUnits="userSpaceOnUse" />
      <linearGradient xlink:href="#a" id="m" x1="62.94" x2="65.051" y1="92.864" y2="84.417"
          gradientTransform="matrix(1 0 0 -1 0 110.19)" gradientUnits="userSpaceOnUse" />
      <linearGradient xlink:href="#b" id="n" x1="22.82" x2="72.375" y1="52.262" y2="57.611"
          gradientTransform="matrix(1 0 0 -1 0 110.19)" gradientUnits="userSpaceOnUse" />
      <path fill="#2d4da1"
          d="M21.453 23.149a1 1 0 0 1-.946-.678l-2.904-8.518a.999.999 0 1 1 1.893-.645l2.904 8.518a.998.998 0 0 1-.947 1.323z"
          opacity="1" data-original="#2d4da1" />
      <path fill="#2d4da1"
          d="M15.742 20.342a1 1 0 0 1-.323-1.947l8.517-2.905a1 1 0 0 1 .647 1.892l-8.518 2.905a.983.983 0 0 1-.323.055z"
          opacity="1" data-original="#2d4da1" />
      <path fill="url(#a)"
          d="M65.576 43.095h-22.15c-6.862 0-12.425 5.563-12.425 12.425v15.575h47V55.52c0-6.862-5.563-12.425-12.425-12.425z"
          opacity="1" data-original="url(#a)" />
      <path fill="#dd5e2650"
          d="M78.001 55.525v15.57h-6v-15.57c0-6.87-5.56-12.43-12.43-12.43h6c6.87 0 12.43 5.56 12.43 12.43z"
          opacity="1" data-original="#dd5e2650" />
      <path fill="url(#a)"
          d="M88.001 82.345v15.75h-67v-15.75c0-6.21 5.04-11.25 11.25-11.25h44.5c.42 0 .84.02 1.25.07 5.62.62 10 5.39 10 11.18z"
          opacity="1" data-original="url(#a)" />
      <path fill="#dd5e2650"
          d="M88.001 82.345v15.75h-7v-15.75c0-5.79-4.38-10.56-10-11.18-.41-.05-.83-.07-1.25-.07h7c.42 0 .84.02 1.25.07 5.62.62 10 5.39 10 11.18z"
          opacity="1" data-original="#dd5e2650" />
      <path fill="url(#b)"
          d="M87.771 80.095h-3.88c-1.66 0-3 1.32-3 2.95v8.05c0 2-1.28 3.25-2.89 3.75-2.67.83-6.24-.42-6.24-3.75v-12c0-2.67-4.06-2.67-4.06 0 0 5.33-8.12 5.33-8.12 0 0-4-6.1-4-6.1 0v6c0 4-5.07 4-5.07 0v-5c0-6.67-11.17-6.67-11.17 0v11c0 4-8.12 4-8.12 0v-6.65c0-.98-.42-1.86-1.11-2.47-.6-.54-1.4-.88-2.29-.88h-4.65v-.02c.02-.17.04-.34.07-.5.02-.12.04-.23.06-.34.03-.18.07-.35.11-.51.2-.85.5-1.66.88-2.41.07-.15.15-.3.24-.45.16-.3.34-.58.53-.86.08-.12.16-.24.25-.35.66-.9 1.45-1.69 2.35-2.35.11-.09.23-.17.35-.25.28-.19.56-.37.86-.53.15-.09.3-.17.45-.24a11.202 11.202 0 0 1 2.92-.99c.11-.02.22-.04.34-.06.16-.03.33-.05.5-.07h.03c.2-.03.41-.04.61-.05.21-.02.42-.02.63-.02h44.5c.42 0 .84.02 1.25.07 4.88.54 8.81 4.2 9.77 8.93z"
          opacity="1" data-original="url(#b)" />
      <path fill="#1297cc50"
          d="M87.771 80.095h-3.88c-1.38 0-2.55.92-2.89 2.17-.04-5.75-4.41-10.48-10-11.1-.41-.05-.83-.07-1.25-.07h7c.42 0 .84.02 1.25.07 4.88.54 8.81 4.2 9.77 8.93z"
          opacity="1" data-original="#1297cc50" />
      <circle cx="77.001" cy="78.095" r="2" fill="#ffcc54" opacity="1" data-original="#ffcc54" />
      <path fill="url(#c)"
          d="M94.001 105.095h-78c0-1.94.78-3.68 2.05-4.95s3.01-2.05 4.95-2.05h64c3.87 0 7 3.13 7 7z"
          opacity="1" data-original="url(#c)" />
      <path fill="#d8445d50" d="M94.001 105.095h-11v-7h4c3.87 0 7 3.13 7 7z" opacity="1"
          data-original="#d8445d50" />
      <path fill="url(#c)"
          d="M58.001 43.095h-7v-16.31c0-.933.757-1.69 1.69-1.69h3.62c.933 0 1.69.757 1.69 1.69z"
          opacity="1" data-original="url(#c)" />
      <path fill="#d8445d50" d="M58.001 28.095v15h-7v-8c3.87 0 7-3.13 7-7z" opacity="1"
          data-original="#d8445d50" />
      <path fill="url(#c)"
          d="M67.001 43.095h-5v-10.31c0-.933.757-1.69 1.69-1.69h1.62c.933 0 1.69.757 1.69 1.69z"
          opacity="1" data-original="url(#c)" />
      <path fill="#d8445d50" d="M67.001 33.095v10h-5v-5c2.76 0 5-2.24 5-5z" opacity="1"
          data-original="#d8445d50" />
      <path fill="url(#c)"
          d="M47.001 43.095h-5v-10.31c0-.933.757-1.69 1.69-1.69h1.62c.933 0 1.69.757 1.69 1.69z"
          opacity="1" data-original="url(#c)" />
      <path fill="#d8445d50" d="M47.001 34.095v9h-5v-4c2.76 0 5-2.24 5-5z" opacity="1"
          data-original="#d8445d50" />
      <path fill="url(#a)" d="M56.727 11.095s2 11-3 11c-5-5 1.574-4.938 3-11z" opacity="1"
          data-original="url(#a)" />
      <path fill="url(#a)"
          d="M44.876 18.261s4.016 5.622-.803 8.834c-3.06-1.845-.803-4.819.803-8.834z" opacity="1"
          data-original="url(#a)" />
      <path fill="url(#a)"
          d="M64.876 18.261s4.016 5.622-.803 8.834c-3.06-1.845-.803-4.819.803-8.834z" opacity="1"
          data-original="url(#a)" />
      <path fill="url(#b)"
          d="M78.001 55.525v6.57c0 4-9 4-9 0v-9c0-4-6-4-6 0v8c0 4-7 4-7 0v-7c0-4-5-4-5 0v7c0 4-6 4-6 0v-7c0-2.67-4-2.67-4 0v8c0 2.89-1.87 4.52-4 4.9-2.78.52-6-1.12-6-4.9v-6.57c0-6.87 5.56-12.43 12.43-12.43h22.14c6.87 0 12.43 5.56 12.43 12.43z"
          opacity="1" data-original="url(#b)" />
      <path fill="#1297cc50"
          d="M78.001 55.525v6.57c0 2.45-3.39 3.4-6 2.84v-9.41c0-6.87-5.56-12.43-12.43-12.43h6c6.87 0 12.43 5.56 12.43 12.43z"
          opacity="1" data-original="#1297cc50" />
      <circle cx="32.001" cy="78.095" r="2" fill="#ffcc54" opacity="1" data-original="#ffcc54" />
      <circle cx="59.501" cy="48.595" r="1.5" fill="#ffcc54" opacity="1" data-original="#ffcc54" />
      <g fill="#2d4da1">
      <path
          d="M44.983 48.919c1.93 0 1.934-3 0-3-1.93 0-1.933 3 0 3zM63.989 75.879c1.93 0 1.934-3 0-3-1.931 0-1.934 3 0 3zM75.744 89.464c1.93 0 1.934-3 0-3-1.93 0-1.934 3 0 3zM33.44 88.619c1.93 0 1.934-3 0-3-1.931 0-1.934 3 0 3z"
          fill="#2d4da1" opacity="1" data-original="#2d4da1" />
    </g>
      <path fill="#2d4da1"
          d="M18.002 63.095c-.332 0-.657-.165-.848-.467l-5.23-8.31a1 1 0 0 1 1.693-1.066l5.231 8.31a1 1 0 0 1-.846 1.533zM10.202 50.705c-.332 0-.657-.165-.848-.467l-9.2-14.61a1 1 0 0 1 1.694-1.066l9.2 14.61a1.001 1.001 0 0 1-.846 1.533zM23 58.095a1 1 0 0 1-.992-.883l-2-17a1.001 1.001 0 0 1 1.986-.234l2 17A1.001 1.001 0 0 1 23 58.095zM14.002 67.095a.927.927 0 0 1-.165-.014l-12-2a1 1 0 0 1 .328-1.973l12 2a1 1 0 0 1-.163 1.987zM89 64.095a1 1 0 0 1-.845-1.533l4.93-7.83a1 1 0 0 1 1.693 1.066l-4.93 7.83a1.001 1.001 0 0 1-.848.467zM97.06 51.295a1 1 0 0 1-.846-1.533l8.94-14.2a1 1 0 0 1 1.693 1.066l-8.94 14.2a.999.999 0 0 1-.847.467zM84.002 59.095a1 1 0 0 1-.994-1.117l2-17a1 1 0 0 1 1.986.234l-2 17a1 1 0 0 1-.992.883zM93 68.095a1 1 0 0 1-.163-1.986l12-2a1 1 0 0 1 .328 1.973l-12 2c-.056.009-.11.013-.165.013zM42.238 6.474c1.93 0 1.934-3 0-3-1.93 0-1.933 3 0 3z"
          opacity="1" data-original="#2d4da1" />
      <circle cx="86.501" cy="24.595" r="3.5" fill="#87df75" opacity="1" data-original="#87df75" />
      <path fill="#015a2f"
          d="M84.74 28.615a.992.992 0 0 1-.499-.134 4.495 4.495 0 0 1-2.24-3.886c0-2.481 2.019-4.5 4.5-4.5s4.5 2.019 4.5 4.5c0 .636-.139 1.273-.402 1.84a.999.999 0 1 1-1.815-.84c.142-.306.217-.652.217-1 0-1.378-1.121-2.5-2.5-2.5s-2.5 1.122-2.5 2.5c0 .887.476 1.712 1.24 2.154a.999.999 0 0 1-.501 1.866z"
          opacity="1" data-original="#015a2f" />
      <path fill="#a04e04"
          d="M76.504 8.77a1.002 1.002 0 0 1-.928-1.375 6.447 6.447 0 0 1 1.057-1.753 6.555 6.555 0 0 1-2.549-1.335 6.465 6.465 0 0 1-.665 1.599 1 1 0 0 1-1.726-1.01 4.42 4.42 0 0 0 .406-3.596 1 1 0 1 1 1.908-.598c.165.527 0 0 .001.001a4.468 4.468 0 0 0 2.208 2.642 4.467 4.467 0 0 0 3.431.305 1 1 0 1 1 .598 1.908 4.45 4.45 0 0 0-2.812 2.584 1.004 1.004 0 0 1-.929.628z"
          opacity="1" data-original="#a04e04" />
      <path fill="#2d4da1"
          d="M104.001 106.095h-90.91a1 1 0 1 1 0-2h90.91a1 1 0 1 1 0 2zM10.001 106.095h-6a1 1 0 1 1 0-2h6a1 1 0 1 1 0 2z"
          opacity="1" data-original="#2d4da1" />
  </g>
</svg>
